<?xml version="1.0" encoding="UTF-8" standalone="no"?>
<!DOCTYPE svg PUBLIC "-//W3C//DTD SVG 1.1//EN"
 "http://www.w3.org/Graphics/SVG/1.1/DTD/svg11.dtd">
<!-- Generated by graphviz version 2.43.0 (0)
 -->
<!-- Title: device&#45;detection&#45;python.fiftyone_devicedetection_onpremise.fiftyone_devicedetection_onpremise.DeviceDetectionHashEngineModule.EngineHashSwig Pages: 1 -->
<svg width="896pt" height="61pt"
 viewBox="0.00 0.00 896.00 61.00" xmlns="http://www.w3.org/2000/svg" xmlns:xlink="http://www.w3.org/1999/xlink">
<g id="graph0" class="graph" transform="scale(1 1) rotate(0) translate(4 57)">
<title>device&#45;detection&#45;python.fiftyone_devicedetection_onpremise.fiftyone_devicedetection_onpremise.DeviceDetectionHashEngineModule.EngineHashSwig</title>
<!-- Node4 -->
<g id="node1" class="node">
<title>Node4</title>
<g id="a_node1"><a xlink:title=" ">
<polygon fill="#bfbfbf" stroke="black" points="647,-0.5 647,-52.5 888,-52.5 888,-0.5 647,-0.5"/>
<text text-anchor="start" x="655" y="-40.5" font-family="Helvetica,sans-Serif" font-size="10.00">device&#45;detection&#45;python.fiftyone</text>
<text text-anchor="start" x="655" y="-29.5" font-family="Helvetica,sans-Serif" font-size="10.00">_devicedetection_onpremise.fiftyone</text>
<text text-anchor="start" x="655" y="-18.5" font-family="Helvetica,sans-Serif" font-size="10.00">_devicedetection_onpremise.DeviceDetection</text>
<text text-anchor="middle" x="767.5" y="-7.5" font-family="Helvetica,sans-Serif" font-size="10.00">HashEngineModule.EngineHashSwig</text>
</a>
</g>
</g>
<!-- Node5 -->
<g id="node2" class="node">
<title>Node5</title>
<g id="a_node2"><a xlink:href="classdevice-detection-python_1_1fiftyone__devicedetection__onpremise_1_1fiftyone__devicedetectio1170b63c8504c41057134d184765bd1a.html" target="_top" xlink:title=" ">
<polygon fill="none" stroke="black" points="360,-0.5 360,-52.5 611,-52.5 611,-0.5 360,-0.5"/>
<text text-anchor="start" x="368" y="-40.5" font-family="Helvetica,sans-Serif" font-size="10.00">device&#45;detection&#45;python.fiftyone</text>
<text text-anchor="start" x="368" y="-29.5" font-family="Helvetica,sans-Serif" font-size="10.00">_devicedetection_onpremise.fiftyone</text>
<text text-anchor="start" x="368" y="-18.5" font-family="Helvetica,sans-Serif" font-size="10.00">_devicedetection_onpremise.DeviceDetection</text>
<text text-anchor="middle" x="485.5" y="-7.5" font-family="Helvetica,sans-Serif" font-size="10.00">HashEngineModule.EngineDeviceDetectionSwig</text>
</a>
</g>
</g>
<!-- Node5&#45;&gt;Node4 -->
<g id="edge1" class="edge">
<title>Node5&#45;&gt;Node4</title>
<path fill="none" stroke="midnightblue" d="M621.62,-26.5C630.06,-26.5 638.52,-26.5 646.88,-26.5"/>
<polygon fill="midnightblue" stroke="midnightblue" points="621.35,-23 611.35,-26.5 621.35,-30 621.35,-23"/>
</g>
<!-- Node6 -->
<g id="node3" class="node">
<title>Node6</title>
<g id="a_node3"><a xlink:href="classdevice-detection-python_1_1fiftyone__devicedetection__onpremise_1_1fiftyone__devicedetectio2777b717156cf576a55743edbdc7f8b3.html" target="_top" xlink:title=" ">
<polygon fill="none" stroke="black" points="83,-0.5 83,-52.5 324,-52.5 324,-0.5 83,-0.5"/>
<text text-anchor="start" x="91" y="-40.5" font-family="Helvetica,sans-Serif" font-size="10.00">device&#45;detection&#45;python.fiftyone</text>
<text text-anchor="start" x="91" y="-29.5" font-family="Helvetica,sans-Serif" font-size="10.00">_devicedetection_onpremise.fiftyone</text>
<text text-anchor="start" x="91" y="-18.5" font-family="Helvetica,sans-Serif" font-size="10.00">_devicedetection_onpremise.DeviceDetection</text>
<text text-anchor="middle" x="203.5" y="-7.5" font-family="Helvetica,sans-Serif" font-size="10.00">HashEngineModule.EngineBaseSwig</text>
</a>
</g>
</g>
<!-- Node6&#45;&gt;Node5 -->
<g id="edge2" class="edge">
<title>Node6&#45;&gt;Node5</title>
<path fill="none" stroke="midnightblue" d="M334.13,-26.5C342.74,-26.5 351.4,-26.5 359.98,-26.5"/>
<polygon fill="midnightblue" stroke="midnightblue" points="334.06,-23 324.06,-26.5 334.06,-30 334.06,-23"/>
</g>
<!-- Node7 -->
<g id="node4" class="node">
<title>Node7</title>
<g id="a_node4"><a xlink:title=" ">
<polygon fill="none" stroke="#bfbfbf" points="0,-17 0,-36 47,-36 47,-17 0,-17"/>
<text text-anchor="middle" x="23.5" y="-24" font-family="Helvetica,sans-Serif" font-size="10.00">object</text>
</a>
</g>
</g>
<!-- Node7&#45;&gt;Node6 -->
<g id="edge3" class="edge">
<title>Node7&#45;&gt;Node6</title>
<path fill="none" stroke="midnightblue" d="M57.04,-26.5C64.86,-26.5 73.67,-26.5 82.98,-26.5"/>
<polygon fill="midnightblue" stroke="midnightblue" points="57.04,-23 47.04,-26.5 57.04,-30 57.04,-23"/>
</g>
</g>
</svg>
