<?xml version="1.0" encoding="UTF-8" standalone="no"?>
<!DOCTYPE svg PUBLIC "-//W3C//DTD SVG 1.1//EN"
 "http://www.w3.org/Graphics/SVG/1.1/DTD/svg11.dtd">
<!-- Generated by graphviz version 2.43.0 (0)
 -->
<!-- Title: device&#45;detection&#45;python.fiftyone_devicedetection_onpremise.fiftyone_devicedetection_onpremise.DeviceDetectionHashEngineModule.EvidenceDeviceDetectionSwig Pages: 1 -->
<svg width="907pt" height="61pt"
 viewBox="0.00 0.00 907.00 61.00" xmlns="http://www.w3.org/2000/svg" xmlns:xlink="http://www.w3.org/1999/xlink">
<g id="graph0" class="graph" transform="scale(1 1) rotate(0) translate(4 57)">
<title>device&#45;detection&#45;python.fiftyone_devicedetection_onpremise.fiftyone_devicedetection_onpremise.DeviceDetectionHashEngineModule.EvidenceDeviceDetectionSwig</title>
<!-- Node0 -->
<g id="node1" class="node">
<title>Node0</title>
<g id="a_node1"><a xlink:title=" ">
<polygon fill="#bfbfbf" stroke="black" points="637,-0.5 637,-52.5 899,-52.5 899,-0.5 637,-0.5"/>
<text text-anchor="start" x="645" y="-40.5" font-family="Helvetica,sans-Serif" font-size="10.00">device&#45;detection&#45;python.fiftyone</text>
<text text-anchor="start" x="645" y="-29.5" font-family="Helvetica,sans-Serif" font-size="10.00">_devicedetection_onpremise.fiftyone</text>
<text text-anchor="start" x="645" y="-18.5" font-family="Helvetica,sans-Serif" font-size="10.00">_devicedetection_onpremise.DeviceDetection</text>
<text text-anchor="middle" x="768" y="-7.5" font-family="Helvetica,sans-Serif" font-size="10.00">HashEngineModule.EvidenceDeviceDetectionSwig</text>
</a>
</g>
</g>
<!-- Node1 -->
<g id="node2" class="node">
<title>Node1</title>
<g id="a_node2"><a xlink:href="classdevice-detection-python_1_1fiftyone__devicedetection__onpremise_1_1fiftyone__devicedetectio9693b4ba4f98f60902b70f43a5fdc347.html" target="_top" xlink:title=" ">
<polygon fill="none" stroke="black" points="360,-0.5 360,-52.5 601,-52.5 601,-0.5 360,-0.5"/>
<text text-anchor="start" x="368" y="-40.5" font-family="Helvetica,sans-Serif" font-size="10.00">device&#45;detection&#45;python.fiftyone</text>
<text text-anchor="start" x="368" y="-29.5" font-family="Helvetica,sans-Serif" font-size="10.00">_devicedetection_onpremise.fiftyone</text>
<text text-anchor="start" x="368" y="-18.5" font-family="Helvetica,sans-Serif" font-size="10.00">_devicedetection_onpremise.DeviceDetection</text>
<text text-anchor="middle" x="480.5" y="-7.5" font-family="Helvetica,sans-Serif" font-size="10.00">HashEngineModule.EvidenceBaseSwig</text>
</a>
</g>
</g>
<!-- Node1&#45;&gt;Node0 -->
<g id="edge1" class="edge">
<title>Node1&#45;&gt;Node0</title>
<path fill="none" stroke="midnightblue" d="M611.57,-26.5C619.99,-26.5 628.47,-26.5 636.9,-26.5"/>
<polygon fill="midnightblue" stroke="midnightblue" points="611.34,-23 601.34,-26.5 611.34,-30 611.34,-23"/>
</g>
<!-- Node2 -->
<g id="node3" class="node">
<title>Node2</title>
<g id="a_node3"><a xlink:href="classdevice-detection-python_1_1fiftyone__devicedetection__onpremise_1_1fiftyone__devicedetectio096c55ae4eb8ccf3284b82b0c93648c0.html" target="_top" xlink:title=" ">
<polygon fill="none" stroke="black" points="83,-0.5 83,-52.5 324,-52.5 324,-0.5 83,-0.5"/>
<text text-anchor="start" x="91" y="-40.5" font-family="Helvetica,sans-Serif" font-size="10.00">device&#45;detection&#45;python.fiftyone</text>
<text text-anchor="start" x="91" y="-29.5" font-family="Helvetica,sans-Serif" font-size="10.00">_devicedetection_onpremise.fiftyone</text>
<text text-anchor="start" x="91" y="-18.5" font-family="Helvetica,sans-Serif" font-size="10.00">_devicedetection_onpremise.DeviceDetection</text>
<text text-anchor="middle" x="203.5" y="-7.5" font-family="Helvetica,sans-Serif" font-size="10.00">HashEngineModule.MapStringStringSwig</text>
</a>
</g>
</g>
<!-- Node2&#45;&gt;Node1 -->
<g id="edge2" class="edge">
<title>Node2&#45;&gt;Node1</title>
<path fill="none" stroke="midnightblue" d="M334.52,-26.5C342.91,-26.5 351.33,-26.5 359.67,-26.5"/>
<polygon fill="midnightblue" stroke="midnightblue" points="334.32,-23 324.32,-26.5 334.32,-30 334.32,-23"/>
</g>
<!-- Node3 -->
<g id="node4" class="node">
<title>Node3</title>
<g id="a_node4"><a xlink:title=" ">
<polygon fill="none" stroke="#bfbfbf" points="0,-17 0,-36 47,-36 47,-17 0,-17"/>
<text text-anchor="middle" x="23.5" y="-24" font-family="Helvetica,sans-Serif" font-size="10.00">object</text>
</a>
</g>
</g>
<!-- Node3&#45;&gt;Node2 -->
<g id="edge3" class="edge">
<title>Node3&#45;&gt;Node2</title>
<path fill="none" stroke="midnightblue" d="M57.04,-26.5C64.86,-26.5 73.67,-26.5 82.98,-26.5"/>
<polygon fill="midnightblue" stroke="midnightblue" points="57.04,-23 47.04,-26.5 57.04,-30 57.04,-23"/>
</g>
</g>
</svg>
