<?xml version="1.0" encoding="UTF-8" standalone="no"?>
<!DOCTYPE svg PUBLIC "-//W3C//DTD SVG 1.1//EN"
 "http://www.w3.org/Graphics/SVG/1.1/DTD/svg11.dtd">
<!-- Generated by graphviz version 2.43.0 (0)
 -->
<!-- Title: device&#45;detection&#45;python.fiftyone_devicedetection_onpremise.fiftyone_devicedetection_onpremise.DeviceDetectionHashEngineModule.ConfigHashSwig Pages: 1 -->
<svg width="893pt" height="61pt"
 viewBox="0.00 0.00 893.00 61.00" xmlns="http://www.w3.org/2000/svg" xmlns:xlink="http://www.w3.org/1999/xlink">
<g id="graph0" class="graph" transform="scale(1 1) rotate(0) translate(4 57)">
<title>device&#45;detection&#45;python.fiftyone_devicedetection_onpremise.fiftyone_devicedetection_onpremise.DeviceDetectionHashEngineModule.ConfigHashSwig</title>
<!-- Node0 -->
<g id="node1" class="node">
<title>Node0</title>
<g id="a_node1"><a xlink:title=" ">
<polygon fill="#bfbfbf" stroke="black" points="644,-0.5 644,-52.5 885,-52.5 885,-0.5 644,-0.5"/>
<text text-anchor="start" x="652" y="-40.5" font-family="Helvetica,sans-Serif" font-size="10.00">device&#45;detection&#45;python.fiftyone</text>
<text text-anchor="start" x="652" y="-29.5" font-family="Helvetica,sans-Serif" font-size="10.00">_devicedetection_onpremise.fiftyone</text>
<text text-anchor="start" x="652" y="-18.5" font-family="Helvetica,sans-Serif" font-size="10.00">_devicedetection_onpremise.DeviceDetection</text>
<text text-anchor="middle" x="764.5" y="-7.5" font-family="Helvetica,sans-Serif" font-size="10.00">HashEngineModule.ConfigHashSwig</text>
</a>
</g>
</g>
<!-- Node1 -->
<g id="node2" class="node">
<title>Node1</title>
<g id="a_node2"><a xlink:href="classdevice-detection-python_1_1fiftyone__devicedetection__onpremise_1_1fiftyone__devicedetectio82e86b79455cec5372531b71b8e2c3e1.html" target="_top" xlink:title=" ">
<polygon fill="none" stroke="black" points="360,-0.5 360,-52.5 608,-52.5 608,-0.5 360,-0.5"/>
<text text-anchor="start" x="368" y="-40.5" font-family="Helvetica,sans-Serif" font-size="10.00">device&#45;detection&#45;python.fiftyone</text>
<text text-anchor="start" x="368" y="-29.5" font-family="Helvetica,sans-Serif" font-size="10.00">_devicedetection_onpremise.fiftyone</text>
<text text-anchor="start" x="368" y="-18.5" font-family="Helvetica,sans-Serif" font-size="10.00">_devicedetection_onpremise.DeviceDetection</text>
<text text-anchor="middle" x="484" y="-7.5" font-family="Helvetica,sans-Serif" font-size="10.00">HashEngineModule.ConfigDeviceDetectionSwig</text>
</a>
</g>
</g>
<!-- Node1&#45;&gt;Node0 -->
<g id="edge1" class="edge">
<title>Node1&#45;&gt;Node0</title>
<path fill="none" stroke="midnightblue" d="M618.62,-26.5C627.04,-26.5 635.49,-26.5 643.84,-26.5"/>
<polygon fill="midnightblue" stroke="midnightblue" points="618.37,-23 608.37,-26.5 618.37,-30 618.37,-23"/>
</g>
<!-- Node2 -->
<g id="node3" class="node">
<title>Node2</title>
<g id="a_node3"><a xlink:href="classdevice-detection-python_1_1fiftyone__devicedetection__onpremise_1_1fiftyone__devicedetectioe6441597499971b6ff8c34ae0a2dbc46.html" target="_top" xlink:title=" ">
<polygon fill="none" stroke="black" points="83,-0.5 83,-52.5 324,-52.5 324,-0.5 83,-0.5"/>
<text text-anchor="start" x="91" y="-40.5" font-family="Helvetica,sans-Serif" font-size="10.00">device&#45;detection&#45;python.fiftyone</text>
<text text-anchor="start" x="91" y="-29.5" font-family="Helvetica,sans-Serif" font-size="10.00">_devicedetection_onpremise.fiftyone</text>
<text text-anchor="start" x="91" y="-18.5" font-family="Helvetica,sans-Serif" font-size="10.00">_devicedetection_onpremise.DeviceDetection</text>
<text text-anchor="middle" x="203.5" y="-7.5" font-family="Helvetica,sans-Serif" font-size="10.00">HashEngineModule.ConfigBaseSwig</text>
</a>
</g>
</g>
<!-- Node2&#45;&gt;Node1 -->
<g id="edge2" class="edge">
<title>Node2&#45;&gt;Node1</title>
<path fill="none" stroke="midnightblue" d="M334.49,-26.5C342.94,-26.5 351.42,-26.5 359.83,-26.5"/>
<polygon fill="midnightblue" stroke="midnightblue" points="334.23,-23 324.23,-26.5 334.23,-30 334.23,-23"/>
</g>
<!-- Node3 -->
<g id="node4" class="node">
<title>Node3</title>
<g id="a_node4"><a xlink:title=" ">
<polygon fill="none" stroke="#bfbfbf" points="0,-17 0,-36 47,-36 47,-17 0,-17"/>
<text text-anchor="middle" x="23.5" y="-24" font-family="Helvetica,sans-Serif" font-size="10.00">object</text>
</a>
</g>
</g>
<!-- Node3&#45;&gt;Node2 -->
<g id="edge3" class="edge">
<title>Node3&#45;&gt;Node2</title>
<path fill="none" stroke="midnightblue" d="M57.04,-26.5C64.86,-26.5 73.67,-26.5 82.98,-26.5"/>
<polygon fill="midnightblue" stroke="midnightblue" points="57.04,-23 47.04,-26.5 57.04,-30 57.04,-23"/>
</g>
</g>
</svg>
